<svg xmlns="http://www.w3.org/2000/svg">
  <symbol viewBox="0 0 27 36" id="html-academy-logo">
    <path d="M13.65 0.949951H13.55L0.0500488 2.34995V27.05L13.55 35.0499L26.95 27.05V2.34995L13.65 0.949951ZM25.05 13.05L13.55 6.24995V6.14995H13.45L13.35 6.04995V6.14995L1.95005 13.05V4.04995L13.45 2.84995L25.05 4.04995V13.05ZM13.45 7.74995L24.95 14.45L20.45 17.05L13.35 12.85V14.25L19.25 17.75L18.35 18.25L13.35 15.25V16.65L17.15 18.95L16.35 19.45L13.35 17.65V19.05L15.25 20.15L13.45 21.25L2.05005 14.55L13.45 7.74995ZM1.95005 16.05L13.35 22.85V23.85L5.45005 19.15V20.55L13.45 25.35V26.45L5.45005 21.75V23.15L13.45 27.95L21.55 23.05V17.85L24.95 15.85V25.85L13.45 32.75L1.95005 25.95V16.05Z" fill="currentColor" />
  </symbol>

  <symbol id="like-icon">
    <path d="m12.96 3.78-.62 3.05-.63 2.62h9.09v2.2l-3.03 7.25h-9.4V8.4l4.6-4.62ZM2.1 10.5v8.4-8.4ZM13.8 0 6.9 6.93c-.42.32-.63.84-.63 1.47v10.5c0 1.16.94 2.1 2.1 2.1h9.4c.84 0 1.57-.52 1.88-1.26l3.14-7.45c.1-.21.1-.53.1-.74v-2.1H23a2.1 2.1 0 0 0-2.1-2.1h-6.58l1.05-4.83v-.31c0-.43-.21-.84-.42-1.16L13.8 0ZM4.18 8.4H0V21h4.18V8.4Z"/>
  </symbol>
</svg>
